<svg version="1.2" xmlns="http://www.w3.org/2000/svg" viewBox="51.99999999999996 302 1074 166" width="1075" height="166">
	<title>logo</title>
	<style>
		.s0 { fill: #231f20 } 
	</style>
	<g id="圖層 1">
		<g id="&lt;Group&gt;">
			<path id="&lt;Compound Path&gt;" class="s0" d="m3054.52 215.24l6.32 0.74-2.21 18.97 46.74 5.44-0.9 7.71-46.73-5.45-2.21 18.97-6.32-0.73z"/>
			<path id="&lt;Compound Path&gt;" class="s0" d="m3046.91 274.76l3.65-7.87 57.11 3.78-3.54 7.64-16.93-1.51-9.42 20.34 11.94 12.29-3.31 7.14zm33.91 1.8l-25.03-2.11 17.57 18.22z"/>
			<path id="&lt;Compound Path&gt;" class="s0" d="m3054.29 306.84l4.96-5.96 41.04 34.19-4.96 5.96z"/>
			<path id="&lt;Compound Path&gt;" class="s0" d="m3054.15 362.44l20.72-14.63q6.15-4.34 12.24-3.72 6.1 0.62 10.29 6.56 3.61 5.1 2.91 11.27-0.7 6.17-7.64 11.07l-14.46 10.21 13.02 18.45-6.27 4.43zm28.56-11.18q-2.71 0.54-6.31 3.08l-12.39 8.75 10.67 15.12 12.39-8.75q4.2-2.96 5.61-6.5 1.42-3.54-1.6-7.81-3.4-4.82-8.37-3.89z"/>
			<path id="&lt;Compound Path&gt;" class="s0" d="m3050.75 418.39l39.98-9.65 1.54 6.36-32.71 7.89 3.81 15.77 30.23-7.3 1.45 6.01-30.23 7.3 4.24 17.6 33.27-8.03 1.5 6.18-40.55 9.79z"/>
			<path id="&lt;Compound Path&gt;" class="s0" d="m3074.02 472.97l7.75 0.18-1.21 53.4-7.76-0.18z"/>
		</g>
		<g id="&lt;Group&gt;">
			<path id="&lt;Compound Path&gt;" class="s0" d="m3168.7 292.6l7.99 3.4-2.02 57.2-7.74-3.3 0.98-16.97-20.62-8.78-11.91 12.31-7.24-3.09zm-0.76 33.95l1.34-25.08-17.66 18.12z"/>
			<path id="&lt;Compound Path&gt;" class="s0" d="m3158.88 345.89l18.07 18.37q4.47 4.53 6.09 8.73 3.07 7.98-3.49 14.44-3.42 3.36-7.07 4.01-3.66 0.64-7.63-0.75 1.42 3.25 1.12 5.9-0.3 2.65-3.48 6.05l-4.92 5.22q-2.09 2.22-2.86 3.57-1.33 2.28-0.6 4.06l-0.86 0.84-6.6-6.71q0.22-0.76 0.84-1.69 0.61-0.93 2.73-3.23l6.03-6.58q3.55-3.86 2.19-7.78-0.8-2.21-4.01-5.47l-11.91-12.11-16.33 16.07-5.38-5.47zm0.05 34.93q3.68 3.75 7.28 4.5 3.59 0.75 7.38-2.97 4.07-4.01 2.54-8.51-0.82-2.4-3.51-5.12l-12.79-13-13.01 12.8z"/>
			<path id="&lt;Compound Path&gt;" class="s0" d="m3182.26 450.13l-5.83 2.54-7.63-17.51-43.13 18.8-3.1-7.1 43.13-18.81-7.63-17.5 5.83-2.55z"/>
		</g>
		<g id="&lt;Group&gt;">
			<path id="&lt;Compound Path&gt;" class="s0" d="m3269.12 327.52l-2.08 24.42q-0.85 9.98-6.79 13.72-3.51 2.2-7.82 1.83-5.04-0.43-8-3.74-1.57-1.72-2.73-4.8-1.93 4.21-4.07 6.2-3.8 3.51-9.93 2.98-5.14-0.44-9.01-4.23-5.8-5.68-4.84-16.9l2.05-24.02zm-24.34 19.64q-0.42 4.9 0.62 7.72 1.62 4.45 6.81 4.89 5.21 0.44 7.41-3.95 1.24-2.47 1.67-7.52l1.17-13.79-16.48-1.41zm-24.79 0.49q-0.6 7.1 2.98 10.46 2.26 2.11 5.71 2.4 5.79 0.49 8.37-4.88 1.37-2.85 1.79-7.7l1.3-15.33-18.73-1.6z"/>
			<path id="&lt;Compound Path&gt;" class="s0" d="m3238.23 430.77q-8.74-2.35-15.31-11.24-7.11-9.63-6.64-19.83 0.55-11.98 11.82-20.3 10.52-7.78 21.38-5.67 10.03 2.35 17.16 12 6.44 8.72 6.43 18.31-0.02 12.31-11.56 20.84-12.07 8.92-23.28 5.89zm-14.78-31.4q0.43 8.21 5.72 15.38 5.61 7.58 13.23 9.1 7.62 1.51 14.91-3.87 7.08-5.23 8.16-13.11 1.08-7.88-5.51-16.81-5.28-7.14-12.73-9.21-7.46-2.08-16.05 4.27-8.16 6.03-7.73 14.25z"/>
			<path id="&lt;Compound Path&gt;" class="s0" d="m3233.72 494.53q-8.75-2.35-15.32-11.24-7.1-9.63-6.63-19.83 0.55-11.98 11.81-20.3 10.52-7.78 21.38-5.67 10.04 2.35 17.17 12 6.44 8.71 6.43 18.31-0.02 12.31-11.57 20.84-12.07 8.92-23.27 5.89zm-14.79-31.41q0.43 8.22 5.73 15.39 5.6 7.58 13.22 9.1 7.62 1.51 14.92-3.87 7.07-5.23 8.16-13.11 1.08-7.88-5.52-16.81-5.27-7.15-12.73-9.22-7.45-2.07-16.05 4.28-8.16 6.03-7.73 14.24z"/>
			<path id="&lt;Compound Path&gt;" class="s0" d="m3218.05 516.1l-7.3 1.68-5.86-25.48-21.77 31.84-10.46 2.41 18.76-26.44-31.23-25.5 9.79-2.26 25.81 21.61 7.16-10.09-4.18-18.14 7.3-1.68z"/>
		</g>
		<g id="&lt;Group&gt;">
			<path id="&lt;Compound Path&gt;" class="s0" d="m3330.94 424.38l-37.77-10.89 1.81-6.29 30.4 8.77 4.49-15.59-26.73-7.71 1.77-6.11 26.73 7.71 6.73-23.34 7.38 2.13z"/>
			<path id="&lt;Compound Path&gt;" class="s0" d="m3299 483.69l-7.12-4.96 13.64-55.59 6.9 4.81-4.42 16.41 18.4 12.81 14.17-9.63 6.46 4.5zm7.66-33.08l-6.42 24.28 20.99-14.14z"/>
			<path id="&lt;Compound Path&gt;" class="s0" d="m3275.27 524.07l-5.01-5.92 40.8-34.47 5.01 5.92z"/>
			<path id="&lt;Compound Path&gt;" class="s0" d="m3334.46 526.55l-10.56-23.5q-2.61-5.81-2.67-10.3-0.1-8.56 8.29-12.33 4.38-1.97 8.03-1.3 3.65 0.67 6.89 3.36-0.2-3.55 1-5.93 1.2-2.38 5.37-4.47l6.42-3.18q2.74-1.36 3.93-2.36 2.03-1.67 1.97-3.59l1.1-0.49 3.85 8.59q-0.47 0.63-1.37 1.29-0.9 0.66-3.69 2.08l-7.93 4.07q-4.67 2.39-4.76 6.54-0.02 2.35 1.85 6.52l6.96 15.49 20.9-9.39 3.15 7.01zm12.1-32.78q-2.16-4.79-5.27-6.75-3.11-1.95-7.95 0.22-5.21 2.34-5.35 7.1-0.05 2.53 1.52 6.02l7.47 16.63 16.65-7.48z"/>
		</g>
		<g id="&lt;Group&gt;">
		</g>
		<g id="&lt;Group&gt;">
			<path id="&lt;Compound Path&gt;" class="s0" d="m1831.69 235.16l-0.84 7.2-21.61-2.51-6.2 53.24-8.78-1.02 6.21-53.24-21.62-2.52 0.84-7.2z"/>
			<path id="&lt;Compound Path&gt;" class="s0" d="m1856.81 229.11l8.97 4.15-4.32 65.07-8.69-4.03 1.72-19.29-23.18-10.73-14 13.6-8.14-3.77zm-2.05 38.63l2.41-28.51-20.76 20.01z"/>
			<path id="&lt;Compound Path&gt;" class="s0" d="m1904.73 229.11l6.79 5.65-38.95 46.76-6.79-5.66z"/>
			<path id="&lt;Compound Path&gt;" class="s0" d="m1944.61 229.11l16.66 23.6q4.94 7 4.24 13.95-0.7 6.94-7.47 11.72-5.82 4.11-12.84 3.31-7.03-0.79-12.62-8.7l-11.63-16.48-21.01 14.84-5.05-7.14zm12.74 32.54q-0.62-3.1-3.51-7.2l-9.97-14.11-17.22 12.16 9.96 14.12q3.38 4.77 7.41 6.39 4.03 1.61 8.9-1.83 5.48-3.87 4.43-9.53z"/>
			<path id="&lt;Compound Path&gt;" class="s0" d="m2024.76 229.11l10.99 45.55-7.25 1.75-8.99-37.26-17.96 4.33 8.31 34.44-6.84 1.65-8.32-34.44-20.05 4.84 9.15 37.9-7.05 1.71-11.15-46.19z"/>
			<path id="&lt;Compound Path&gt;" class="s0" d="m2096.79 230.49l-0.2 8.83-60.84-1.38 0.2-8.83z"/>
		</g>
		<g id="&lt;Group&gt;">
			<path id="&lt;Compound Path&gt;" class="s0" d="m1847.9 350.86l-3.88 9.1-65.17-2.3 3.76-8.81 19.34 1.11 10.01-23.49-14.03-13.57 3.51-8.25zm-38.67-0.86l28.58 1.52-20.65-20.12z"/>
			<path id="&lt;Compound Path&gt;" class="s0" d="m1927.03 348.02l-20.92 20.59q-5.17 5.09-9.94 6.94-9.1 3.49-16.46-3.98-3.83-3.9-4.56-8.06-0.74-4.16 0.85-8.69-3.71 1.62-6.73 1.28-3.02-0.34-6.89-3.97l-5.95-5.6q-2.53-2.39-4.07-3.26-2.59-1.51-4.62-0.68l-0.96-0.98 7.65-7.52q0.86 0.25 1.92 0.95 1.06 0.7 3.69 3.12l7.49 6.86q4.4 4.05 8.87 2.5 2.52-0.91 6.23-4.57l13.79-13.56-18.3-18.61 6.23-6.13zm-39.8 0.05q-4.27 4.2-5.12 8.29-0.86 4.1 3.38 8.41 4.56 4.64 9.69 2.9 2.73-0.94 5.84-4l14.81-14.57-14.59-14.82z"/>
			<path id="&lt;Compound Path&gt;" class="s0" d="m1931.13 372.66l-2.89-6.65 19.94-8.69-21.42-49.14 8.1-3.53 21.42 49.14 19.95-8.7 2.89 6.65z"/>
		</g>
		<g id="&lt;Group&gt;">
			<path id="&lt;Compound Path&gt;" class="s0" d="m1825.2 450.92l-27.82-2.37q-11.37-0.97-15.64-7.74-2.5-3.99-2.08-8.9 0.49-5.74 4.26-9.12 1.97-1.79 5.47-3.11-4.79-2.2-7.05-4.63-4-4.34-3.41-11.31 0.5-5.86 4.83-10.27 6.46-6.61 19.24-5.52l27.37 2.34zm-22.38-27.73q-5.57-0.48-8.79 0.71-5.06 1.85-5.57 7.75-0.5 5.95 4.5 8.45 2.82 1.41 8.57 1.9l15.71 1.34 1.61-18.78zm-0.56-28.24q-8.09-0.69-11.92 3.39-2.4 2.58-2.73 6.5-0.57 6.61 5.55 9.54 3.26 1.57 8.78 2.04l17.46 1.49 1.82-21.34z"/>
			<path id="&lt;Compound Path&gt;" class="s0" d="m1836.21 427.63q-1.81-10.15 4.17-21.23 6.47-12 17.22-16.46 12.62-5.24 26.66 2.34 13.11 7.08 16.21 19.29 2.44 11.49-4.05 23.52-5.86 10.86-15.76 15.5-12.7 5.95-27.09-1.81-15.05-8.13-17.36-21.15zm25.21-30.47q-8.26 4.43-13.08 13.37-5.1 9.45-2.97 18.04 2.13 8.6 11.22 13.5 8.82 4.76 17.47 2.06 8.65-2.7 14.66-13.83 4.8-8.91 3.32-17.59-1.48-8.69-12.19-14.48-10.17-5.49-18.43-1.07z"/>
			<path id="&lt;Compound Path&gt;" class="s0" d="m1910.6 412.84q2.69-9.96 12.82-17.45 10.96-8.1 22.58-7.56 13.65 0.63 23.13 13.46 8.86 11.99 6.46 24.36-2.68 11.43-13.67 19.56-9.93 7.33-20.86 7.32-14.03-0.02-23.74-13.17-10.16-13.76-6.72-26.52zm35.78-16.84q-9.35 0.48-17.52 6.52-8.64 6.38-10.37 15.06-1.73 8.69 4.41 17 5.96 8.06 14.94 9.29 8.98 1.24 19.15-6.28 8.14-6.01 10.49-14.5 2.36-8.49-4.87-18.29-6.87-9.3-16.23-8.8z"/>
			<path id="&lt;Compound Path&gt;" class="s0" d="m1993.01 453.71l-1.91-8.31 29.03-6.68-36.27-24.8-2.75-11.92 30.13 21.38 29.05-35.58 2.57 11.16-24.62 29.4 11.5 8.15 20.67-4.75 1.91 8.31z"/>
		</g>
		<g id="&lt;Group&gt;">
			<path id="&lt;Compound Path&gt;" class="s0" d="m1778.85 511.77l12.42-43.04 7.16 2.07-9.99 34.63 17.76 5.12 8.78-30.45 6.96 2.01-8.78 30.45 26.59 7.67-2.43 8.41z"/>
			<path id="&lt;Compound Path&gt;" class="s0" d="m1834.81 476.85l5.66-8.12 63.32 15.55-5.47 7.86-18.7-5.04-14.59 20.96 10.96 16.15-5.12 7.36zm37.69 8.73l-27.67-7.32 16.12 23.91z"/>
			<path id="&lt;Compound Path&gt;" class="s0" d="m1898.97 474.44l6.75-5.71 39.28 46.49-6.75 5.7z"/>
			<path id="&lt;Compound Path&gt;" class="s0" d="m1940.33 483.82l26.78-12.04q6.61-2.97 11.73-3.04 9.75-0.11 14.05 9.45 2.24 4.98 1.48 9.14-0.76 4.16-3.82 7.85 4.04-0.23 6.75 1.14 2.71 1.37 5.09 6.12l3.62 7.32q1.55 3.12 2.68 4.47 1.92 2.32 4.1 2.25l0.56 1.24-9.78 4.4q-0.73-0.54-1.48-1.56-0.75-1.03-2.37-4.21l-4.64-9.04q-2.72-5.32-7.44-5.42-2.68-0.02-7.44 2.11l-17.64 7.93 10.69 23.81-7.97 3.58zm37.34 13.79q5.46-2.45 7.68-6 2.23-3.54-0.25-9.06-2.66-5.93-8.08-6.09-2.89-0.06-6.86 1.72l-18.95 8.52 8.52 18.97z"/>
		</g>
		<path id="&lt;Compound Path&gt;" class="s0" d="m152.4 371.07v8.14h-23.03v60.2h-9.35v-60.2h-23.03v-8.14z"/>
		<path id="&lt;Compound Path&gt;" class="s0" d="m180.38 347.28l10.43 0.92 18.75 70.24-10.11-0.88-5.12-21-26.93-2.35-9.15 19.74-9.46-0.82zm11.65 41.51l-7.71-30.99-13.61 29.12z"/>
		<path id="&lt;Compound Path&gt;" class="s0" d="m227.76 336.6l9.21 1.63-11.86 67.3-9.21-1.62z"/>
		<path id="&lt;Compound Path&gt;" class="s0" d="m262.01 322.02l29.54 7.92q8.76 2.34 12.81 8.75 4.06 6.41 1.65 15.4-2.07 7.73-8.41 12.17-6.34 4.44-16.25 1.79l-20.61-5.53-7.48 27.91-8.94-2.39zm32.25 18.37q-2.57-2.18-7.7-3.56l-17.67-4.73-6.13 22.87 17.67 4.73q5.98 1.61 10.39 0.04 4.41-1.56 6.15-8.03 1.95-7.28-2.71-11.32z"/>
		<path id="&lt;Compound Path&gt;" class="s0" d="m336.37 311.97l44.94 20.96-3.54 7.59-36.76-17.15-8.77 18.81 33.98 15.85-3.34 7.16-33.99-15.84-9.79 20.99 37.4 17.44-3.44 7.38-45.58-21.25z"/>
		<path id="&lt;Compound Path&gt;" class="s0" d="m408.74 312.18l8.1 4.68-34.18 59.19-8.09-4.68z"/>
		<path id="&lt;Compound Path&gt;" class="s0" d="m431.69 368.57l8.58 6.01-18.89 70.2-8.31-5.81 6.06-20.75-22.14-15.5-17.8 12.52-7.77-5.44zm-10.68 41.77l8.82-30.69-26.35 18.41z"/>
		<path id="&lt;Compound Path&gt;" class="s0" d="m482.47 344.69l23.8 19.97q5.88 4.93 8.23 9.88 4.43 9.43-3.13 18.44-3.95 4.71-8.41 6.07-4.45 1.37-9.47 0.25 2.02 3.82 1.87 7.15-0.16 3.34-3.81 8.05l-5.64 7.23q-2.41 3.08-3.24 4.87-1.45 3.03-0.41 5.12l-0.99 1.18-8.69-7.3q0.21-0.97 0.89-2.22 0.69-1.25 3.12-4.44l6.89-9.09q4.07-5.33 2.07-9.98-1.17-2.62-5.39-6.17l-15.68-13.16-18.84 22.45-7.1-5.95zm2.91 43.32q4.85 4.07 9.35 4.44 4.5 0.38 8.87-4.83 4.69-5.59 2.45-10.94-1.22-2.84-4.76-5.81l-16.84-14.13-15.01 17.89z"/>
		<path id="&lt;Compound Path&gt;" class="s0" d="m583.8 372.14l-5.76 5.76-16.28-16.29-42.57 42.57-6.61-6.61 42.57-42.57-16.29-16.28 5.76-5.76z"/>
		<path id="&lt;Compound Path&gt;" class="s0" d="m603.09 372.3l19 22.64q7.76 9.25 5.55 17.77-1.31 5.02-5.55 8.58-4.96 4.15-10.49 4-2.9-0.06-6.6-1.63 1.85 5.31 1.6 8.92-0.46 6.4-6.48 11.45-5.06 4.25-11.84 4.5-10.13 0.37-18.86-10.03l-18.68-22.27zm-5.37 38.56q3.81 4.54 7.17 6.01 5.29 2.32 10.38-1.96 5.14-4.3 3.38-10.01-0.99-3.22-4.92-7.9l-10.73-12.78-16.22 13.6zm-22.15 22.68q5.53 6.58 11.66 6.22 3.87-0.24 7.25-3.09 5.7-4.78 3.45-11.66-1.18-3.66-4.96-8.16l-11.92-14.21-18.43 15.46z"/>
		<path id="&lt;Compound Path&gt;" class="s0" d="m702.57 397.85q-3.54 10.77-15.12 18.88-12.54 8.78-25.3 8.23-14.99-0.64-24.68-14.47-9.04-12.92-5.68-26.29 3.61-12.36 16.19-21.17 11.35-7.95 23.38-7.97 15.44-0.01 25.37 14.17 10.38 14.82 5.84 28.62zm-40.37 18.3q10.33-0.56 19.67-7.1 9.88-6.92 12.29-16.31 2.41-9.38-3.86-18.33-6.08-8.69-15.9-10-9.81-1.31-21.44 6.84-9.31 6.51-12.4 15.69-3.09 9.18 4.3 19.74 7.02 10.02 17.34 9.47z"/>
		<path id="&lt;Compound Path&gt;" class="s0" d="m776.22 383.15q-4.46 10.42-16.71 17.49-13.26 7.65-25.93 5.99-14.87-1.94-23.31-16.56-7.89-13.66-3.38-26.69 4.68-12 17.98-19.67 12-6.93 23.99-5.9 15.38 1.33 24.03 16.32 9.05 15.67 3.33 29.02zm-41.81 14.71q10.33 0.34 20.21-5.36 10.45-6.03 13.67-15.17 3.22-9.14-2.25-18.6-5.3-9.19-14.97-11.35-9.66-2.16-21.95 4.94-9.84 5.68-13.73 14.56-3.88 8.87 2.57 20.04 6.11 10.59 16.45 10.94z"/>
		<path id="&lt;Compound Path&gt;" class="s0" d="m841.68 323.17l3.81 8.18-30.32 14.14 44.77 16.85 5.47 11.73-37.34-14.81-24.34 44.24-5.12-10.98 20.77-36.7-14.24-5.65-21.59 10.07-3.81-8.18z"/>
		<path id="&lt;Compound Path&gt;" class="s0" d="m872.59 398.86l12.27 45.79-8.09 2.17-9.87-36.85-20.05 5.37 8.68 32.4-7.86 2.11-8.68-32.4-30.02 8.04-2.4-8.94z"/>
		<path id="&lt;Compound Path&gt;" class="s0" d="m945.08 382.25l2.71 10.11-59.6 41.65-2.62-9.8 17.97-12-6.99-26.1-21.69-1.85-2.46-9.17zm-35.02 25.14l26.48-17.84-32.02-2.84z"/>
		<path id="&lt;Compound Path&gt;" class="s0" d="m1020.26 376.84l0.8 9.32-68.1 5.84-0.8-9.32z"/>
		<path id="&lt;Compound Path&gt;" class="s0" d="m1087.8 340.13l2.71 30.95q0.67 7.65-1.17 12.81-3.53 9.8-15.25 10.82-6.12 0.54-10.24-1.65-4.11-2.18-6.87-6.52-1.28 4.13-3.74 6.38-2.47 2.24-8.38 3l-9.1 1.12q-3.88 0.48-5.74 1.15-3.17 1.12-3.91 3.34l-1.53 0.13-0.99-11.31q0.84-0.54 2.21-0.94 1.37-0.4 5.33-0.93l11.31-1.55q6.65-0.9 8.53-5.6 1.02-2.68 0.54-8.17l-1.78-20.4-29.2 2.55-0.81-9.22zm-28.57 32.68q0.55 6.31 3.47 9.76 2.92 3.45 9.68 2.86 7.28-0.64 9.47-6.01 1.15-2.87 0.75-7.47l-1.92-21.9-23.26 2.03z"/>
	</g>
</svg>